<mxfile host="app.diagrams.net" agent="Mozilla/5.0 (Windows NT 10.0; Win64; x64) AppleWebKit/537.36 (KHTML, like Gecko) Chrome/127.0.0.0 Safari/537.36" version="24.7.10">
  <diagram name="Trang-1" id="RHSlG4WvFv9xrtbPgmDu">
    <mxGraphModel dx="1219" dy="671" grid="1" gridSize="10" guides="1" tooltips="1" connect="1" arrows="1" fold="1" page="1" pageScale="1" pageWidth="827" pageHeight="1169" math="0" shadow="0">
      <root>
        <mxCell id="0" />
        <mxCell id="1" parent="0" />
        <mxCell id="r1Fn2HsSgFJn9I9jR1zX-1" value="" style="whiteSpace=wrap;html=1;aspect=fixed;" vertex="1" parent="1">
          <mxGeometry x="180" y="100" width="370" height="370" as="geometry" />
        </mxCell>
        <mxCell id="r1Fn2HsSgFJn9I9jR1zX-2" value="OCMS" style="text;html=1;align=center;verticalAlign=middle;whiteSpace=wrap;rounded=0;" vertex="1" parent="1">
          <mxGeometry x="335" y="110" width="60" height="30" as="geometry" />
        </mxCell>
        <mxCell id="r1Fn2HsSgFJn9I9jR1zX-3" value="Instructor" style="shape=umlActor;verticalLabelPosition=bottom;verticalAlign=top;html=1;outlineConnect=0;" vertex="1" parent="1">
          <mxGeometry x="70" y="290" width="30" height="60" as="geometry" />
        </mxCell>
        <mxCell id="r1Fn2HsSgFJn9I9jR1zX-7" value="Student" style="shape=umlActor;verticalLabelPosition=bottom;verticalAlign=top;html=1;outlineConnect=0;" vertex="1" parent="1">
          <mxGeometry x="620" y="300" width="30" height="60" as="geometry" />
        </mxCell>
        <mxCell id="r1Fn2HsSgFJn9I9jR1zX-11" value="manage grade for students" style="ellipse;whiteSpace=wrap;html=1;" vertex="1" parent="1">
          <mxGeometry x="190" y="160" width="120" height="80" as="geometry" />
        </mxCell>
        <mxCell id="r1Fn2HsSgFJn9I9jR1zX-12" value="create assignments with deadline" style="ellipse;whiteSpace=wrap;html=1;" vertex="1" parent="1">
          <mxGeometry x="200" y="250" width="120" height="80" as="geometry" />
        </mxCell>
        <mxCell id="r1Fn2HsSgFJn9I9jR1zX-13" value="" style="endArrow=none;html=1;rounded=0;entryX=0.07;entryY=0.737;entryDx=0;entryDy=0;entryPerimeter=0;" edge="1" parent="1" target="r1Fn2HsSgFJn9I9jR1zX-11">
          <mxGeometry width="50" height="50" relative="1" as="geometry">
            <mxPoint x="90" y="300" as="sourcePoint" />
            <mxPoint x="140" y="250" as="targetPoint" />
          </mxGeometry>
        </mxCell>
        <mxCell id="r1Fn2HsSgFJn9I9jR1zX-14" value="" style="endArrow=none;html=1;rounded=0;entryX=0.075;entryY=0.303;entryDx=0;entryDy=0;entryPerimeter=0;" edge="1" parent="1" target="r1Fn2HsSgFJn9I9jR1zX-12">
          <mxGeometry width="50" height="50" relative="1" as="geometry">
            <mxPoint x="90" y="300" as="sourcePoint" />
            <mxPoint x="140" y="250" as="targetPoint" />
          </mxGeometry>
        </mxCell>
        <mxCell id="r1Fn2HsSgFJn9I9jR1zX-15" value="enrol in course" style="ellipse;whiteSpace=wrap;html=1;" vertex="1" parent="1">
          <mxGeometry x="370" y="160" width="120" height="80" as="geometry" />
        </mxCell>
        <mxCell id="r1Fn2HsSgFJn9I9jR1zX-16" value="submit assignment" style="ellipse;whiteSpace=wrap;html=1;" vertex="1" parent="1">
          <mxGeometry x="370" y="250" width="120" height="80" as="geometry" />
        </mxCell>
        <mxCell id="r1Fn2HsSgFJn9I9jR1zX-17" value="" style="endArrow=none;html=1;rounded=0;entryX=1.005;entryY=0.682;entryDx=0;entryDy=0;entryPerimeter=0;" edge="1" parent="1" source="r1Fn2HsSgFJn9I9jR1zX-7" target="r1Fn2HsSgFJn9I9jR1zX-15">
          <mxGeometry width="50" height="50" relative="1" as="geometry">
            <mxPoint x="330" y="270" as="sourcePoint" />
            <mxPoint x="380" y="220" as="targetPoint" />
          </mxGeometry>
        </mxCell>
        <mxCell id="r1Fn2HsSgFJn9I9jR1zX-18" value="" style="endArrow=none;html=1;rounded=0;entryX=1;entryY=0.5;entryDx=0;entryDy=0;" edge="1" parent="1" source="r1Fn2HsSgFJn9I9jR1zX-7" target="r1Fn2HsSgFJn9I9jR1zX-16">
          <mxGeometry width="50" height="50" relative="1" as="geometry">
            <mxPoint x="330" y="270" as="sourcePoint" />
            <mxPoint x="380" y="220" as="targetPoint" />
          </mxGeometry>
        </mxCell>
        <mxCell id="r1Fn2HsSgFJn9I9jR1zX-19" value="Administrator" style="shape=umlActor;verticalLabelPosition=bottom;verticalAlign=top;html=1;outlineConnect=0;" vertex="1" parent="1">
          <mxGeometry x="370" y="500" width="30" height="60" as="geometry" />
        </mxCell>
        <mxCell id="r1Fn2HsSgFJn9I9jR1zX-23" value="user management" style="ellipse;whiteSpace=wrap;html=1;" vertex="1" parent="1">
          <mxGeometry x="210" y="350" width="120" height="80" as="geometry" />
        </mxCell>
        <mxCell id="r1Fn2HsSgFJn9I9jR1zX-24" value="There are 3 user actors&amp;nbsp;" style="text;html=1;align=center;verticalAlign=middle;whiteSpace=wrap;rounded=0;" vertex="1" parent="1">
          <mxGeometry x="314" y="50" width="100" height="30" as="geometry" />
        </mxCell>
        <mxCell id="r1Fn2HsSgFJn9I9jR1zX-33" value="" style="endArrow=none;html=1;rounded=0;entryX=0.25;entryY=0.1;entryDx=0;entryDy=0;entryPerimeter=0;" edge="1" parent="1" target="r1Fn2HsSgFJn9I9jR1zX-19">
          <mxGeometry width="50" height="50" relative="1" as="geometry">
            <mxPoint x="310" y="420" as="sourcePoint" />
            <mxPoint x="360" y="370" as="targetPoint" />
          </mxGeometry>
        </mxCell>
        <mxCell id="r1Fn2HsSgFJn9I9jR1zX-41" value="enrolment tracking" style="ellipse;whiteSpace=wrap;html=1;" vertex="1" parent="1">
          <mxGeometry x="390" y="340" width="120" height="80" as="geometry" />
        </mxCell>
        <mxCell id="r1Fn2HsSgFJn9I9jR1zX-42" value="" style="endArrow=none;html=1;rounded=0;" edge="1" parent="1" source="r1Fn2HsSgFJn9I9jR1zX-19">
          <mxGeometry width="50" height="50" relative="1" as="geometry">
            <mxPoint x="395" y="470" as="sourcePoint" />
            <mxPoint x="445" y="420" as="targetPoint" />
          </mxGeometry>
        </mxCell>
      </root>
    </mxGraphModel>
  </diagram>
</mxfile>
